<svg width="26" height="10" viewBox="0 0 26 10" fill="none" xmlns="http://www.w3.org/2000/svg">
<path d="M3.72096 7.6656C3.72096 7.6656 3.34853 7.88232 3.98635 7.95544C4.75916 8.04373 5.15408 8.03107 6.00549 7.87013C6.00549 7.87013 6.22978 8.01037 6.54244 8.13193C4.63314 8.9499 2.2215 8.08451 3.72096 7.6656ZM3.48752 6.59802C3.48752 6.59802 3.06971 6.90732 3.70807 6.97341C4.53361 7.05865 5.18541 7.0656 6.31385 6.84841C6.31385 6.84841 6.46955 7.00662 6.71478 7.09302C4.40682 7.76802 1.83619 7.14615 3.48752 6.59802Z" fill="#0074BD"/>
<path d="M5.45283 4.78683C5.92354 5.32862 5.3294 5.81573 5.3294 5.81573C5.3294 5.81573 6.52385 5.19925 5.97541 4.4269C5.46299 3.70698 5.07018 3.3494 7.1969 2.11597C7.1969 2.11604 3.85854 2.94956 5.45283 4.78683Z" fill="#EA2D2E"/>
<path d="M7.9788 8.45542C7.9788 8.45542 8.25451 8.68276 7.67505 8.85847C6.57333 9.19222 3.08865 9.29284 2.12083 8.87183C1.7731 8.72042 2.42544 8.5105 2.63068 8.4662C2.84466 8.41987 2.96685 8.42831 2.96685 8.42831C2.5799 8.15589 0.465834 8.96347 1.89318 9.19511C5.78544 9.82605 8.98826 8.91097 7.9788 8.45542ZM3.89982 5.49175C3.89982 5.49175 2.12748 5.91276 3.27224 6.06581C3.75568 6.1305 4.71896 6.11565 5.61685 6.04034C6.35044 5.9787 7.08662 5.84706 7.08662 5.84706C7.08662 5.84706 6.82818 5.95792 6.64099 6.08558C4.84083 6.55909 1.36412 6.33854 2.36513 5.85448C3.21138 5.44519 3.89982 5.49175 3.89982 5.49175ZM7.07927 7.26886C8.90904 6.31831 8.06294 5.40479 7.4724 5.52784C7.32802 5.55792 7.26326 5.58409 7.26326 5.58409C7.26326 5.58409 7.31701 5.49979 7.41951 5.46354C8.58771 5.053 9.48599 6.67472 7.04271 7.31706C7.04271 7.3169 7.07076 7.29151 7.07927 7.26886Z" fill="#0074BD"/>
<path d="M5.97503 0.124023C5.97503 0.124023 6.98816 1.13777 5.01386 2.69613C3.43058 3.9466 4.65285 4.65941 5.01331 5.47418C4.08902 4.64035 3.41105 3.90621 3.86581 3.22301C4.53363 2.22035 6.3837 1.73402 5.97503 0.124023Z" fill="#EA2D2E"/>
<path d="M4.07984 9.84534C5.83578 9.95761 8.53297 9.78284 8.5968 8.9519C8.5968 8.9519 8.47406 9.2669 7.14547 9.51683C5.64656 9.79901 3.7975 9.76612 2.70117 9.58511C2.70117 9.58519 2.92578 9.77112 4.07984 9.84534Z" fill="#0074BD"/>
<path d="M10.319 8.14C10.223 8.14 10.139 8.132 10.067 8.116C9.99497 8.104 9.93097 8.086 9.87497 8.062V7.606C9.93897 7.622 10.007 7.636 10.079 7.648C10.151 7.66 10.227 7.666 10.307 7.666C10.407 7.666 10.501 7.646 10.589 7.606C10.681 7.566 10.755 7.496 10.811 7.396C10.867 7.296 10.895 7.156 10.895 6.976V2.716H11.435V6.934C11.435 7.21 11.389 7.436 11.297 7.612C11.205 7.792 11.075 7.924 10.907 8.008C10.739 8.096 10.543 8.14 10.319 8.14ZM14.0116 3.73C14.4036 3.73 14.6936 3.816 14.8816 3.988C15.0696 4.16 15.1636 4.434 15.1636 4.81V7H14.7796L14.6776 6.544H14.6536C14.5616 6.66 14.4656 6.758 14.3656 6.838C14.2696 6.914 14.1576 6.97 14.0296 7.006C13.9056 7.042 13.7536 7.06 13.5736 7.06C13.3816 7.06 13.2076 7.026 13.0516 6.958C12.8996 6.89 12.7796 6.786 12.6916 6.646C12.6036 6.502 12.5596 6.322 12.5596 6.106C12.5596 5.786 12.6856 5.54 12.9376 5.368C13.1896 5.192 13.5776 5.096 14.1016 5.08L14.6476 5.062V4.87C14.6476 4.602 14.5896 4.416 14.4736 4.312C14.3576 4.208 14.1936 4.156 13.9816 4.156C13.8136 4.156 13.6536 4.182 13.5016 4.234C13.3496 4.282 13.2076 4.338 13.0756 4.402L12.9136 4.006C13.0536 3.93 13.2196 3.866 13.4116 3.814C13.6036 3.758 13.8036 3.73 14.0116 3.73ZM14.1676 5.446C13.7676 5.462 13.4896 5.526 13.3336 5.638C13.1816 5.75 13.1056 5.908 13.1056 6.112C13.1056 6.292 13.1596 6.424 13.2676 6.508C13.3796 6.592 13.5216 6.634 13.6936 6.634C13.9656 6.634 14.1916 6.56 14.3716 6.412C14.5516 6.26 14.6416 6.028 14.6416 5.716V5.428L14.1676 5.446ZM17.1649 7L15.9469 3.784H16.5109L17.1949 5.68C17.2269 5.768 17.2609 5.866 17.2969 5.974C17.3329 6.082 17.3649 6.186 17.3929 6.286C17.4209 6.382 17.4409 6.464 17.4529 6.532H17.4769C17.4929 6.464 17.5149 6.38 17.5429 6.28C17.5749 6.18 17.6089 6.076 17.6449 5.968C17.6849 5.86 17.7189 5.764 17.7469 5.68L18.4309 3.784H18.9949L17.7709 7H17.1649ZM21.0217 3.73C21.4137 3.73 21.7037 3.816 21.8917 3.988C22.0797 4.16 22.1737 4.434 22.1737 4.81V7H21.7897L21.6877 6.544H21.6637C21.5717 6.66 21.4757 6.758 21.3757 6.838C21.2797 6.914 21.1677 6.97 21.0397 7.006C20.9157 7.042 20.7637 7.06 20.5837 7.06C20.3917 7.06 20.2177 7.026 20.0617 6.958C19.9097 6.89 19.7897 6.786 19.7017 6.646C19.6137 6.502 19.5697 6.322 19.5697 6.106C19.5697 5.786 19.6957 5.54 19.9477 5.368C20.1997 5.192 20.5877 5.096 21.1117 5.08L21.6577 5.062V4.87C21.6577 4.602 21.5997 4.416 21.4837 4.312C21.3677 4.208 21.2037 4.156 20.9917 4.156C20.8237 4.156 20.6637 4.182 20.5117 4.234C20.3597 4.282 20.2177 4.338 20.0857 4.402L19.9237 4.006C20.0637 3.93 20.2297 3.866 20.4217 3.814C20.6137 3.758 20.8137 3.73 21.0217 3.73ZM21.1777 5.446C20.7777 5.462 20.4997 5.526 20.3437 5.638C20.1917 5.75 20.1157 5.908 20.1157 6.112C20.1157 6.292 20.1697 6.424 20.2777 6.508C20.3897 6.592 20.5317 6.634 20.7037 6.634C20.9757 6.634 21.2017 6.56 21.3817 6.412C21.5617 6.26 21.6517 6.028 21.6517 5.716V5.428L21.1777 5.446Z" fill="black"/>
</svg>
