<svg width="350" height="250" viewBox="0 0 350 250" fill="none" xmlns="http://www.w3.org/2000/svg">
<path d="M94.5414 155L97.9614 125.12C97.9614 123.44 97.5414 122.06 96.7014 120.98C95.9214 119.84 94.5114 119.27 92.4714 119.27C90.4314 119.27 88.7514 120.26 87.4314 122.24C86.1114 124.16 85.2714 126.2 84.9114 128.36C82.8114 143.3 81.6414 152.18 81.4014 155H69.3414L74.2914 112.7C76.8114 112.04 78.7314 111.71 80.0514 111.71C83.8314 111.71 85.9014 112.97 86.2614 115.49C89.2014 112.97 92.4114 111.71 95.8914 111.71C102.851 111.71 107.291 113.78 109.211 117.92C112.151 113.72 116.351 111.62 121.811 111.62C125.831 111.62 129.011 112.67 131.351 114.77C133.691 116.81 134.861 119.39 134.861 122.51C134.861 123.41 134.681 125 134.321 127.28C132.941 136.28 132.251 141.56 132.251 143.12C132.251 145.94 133.181 147.35 135.041 147.35C136.601 147.35 138.251 146.33 139.991 144.29C141.791 142.19 143.231 138.98 144.311 134.66C146.351 136.82 147.581 138.53 148.001 139.79C144.881 150.23 139.361 155.45 131.441 155.45C127.721 155.45 124.961 154.31 123.161 152.03C121.361 149.75 120.461 147.35 120.461 144.83L122.621 124.94C122.621 123.32 122.201 121.97 121.361 120.89C120.521 119.81 119.171 119.27 117.311 119.27C115.511 119.27 113.921 119.96 112.541 121.34C111.161 122.72 110.201 124.49 109.661 126.65C107.861 141.89 106.691 151.34 106.151 155H94.5414ZM148.335 88.76C149.715 87.32 151.395 86.6 153.375 86.6C155.355 86.6 157.035 87.32 158.415 88.76C159.855 90.14 160.575 91.82 160.575 93.8C160.575 95.78 159.855 97.46 158.415 98.84C157.035 100.22 155.355 100.91 153.375 100.91C151.395 100.91 149.715 100.22 148.335 98.84C146.955 97.46 146.265 95.78 146.265 93.8C146.265 91.82 146.955 90.14 148.335 88.76ZM144.645 115.13C145.245 114.05 146.385 113.24 148.065 112.7C149.745 112.1 151.395 111.8 153.015 111.8C154.695 111.8 156.165 112.01 157.425 112.43C155.085 130.49 153.915 139.61 153.915 139.79C153.615 140.99 153.465 142.01 153.465 142.85C153.465 143.63 153.525 144.32 153.645 144.92C153.885 146.48 154.965 147.26 156.885 147.26C158.865 147.26 160.665 146 162.285 143.48C163.965 140.9 165.225 137.99 166.065 134.75C166.485 134.99 167.145 135.71 168.045 136.91C168.945 138.11 169.485 139.01 169.665 139.61C168.465 144.41 166.425 148.28 163.545 151.22C160.665 154.16 157.215 155.63 153.195 155.63C149.175 155.63 146.175 154.64 144.195 152.66C142.275 150.68 141.315 148.13 141.315 145.01C141.315 144.35 141.345 143.66 141.405 142.94L144.645 115.13ZM174.385 155.63C170.725 155.63 167.845 154.61 165.745 152.57C163.645 150.47 162.595 147.62 162.595 144.02C162.595 143.06 164.215 128.81 167.455 101.27C168.295 94.19 170.545 89.72 174.205 87.86C175.885 86.96 177.895 86.51 180.235 86.51C188.155 86.51 192.115 90.17 192.115 97.49C192.115 98.09 192.085 98.72 192.025 99.38C191.425 107.42 186.385 115.61 176.905 123.95C176.605 126.89 176.275 129.74 175.915 132.5C175.195 138.68 174.835 142.1 174.835 142.76C174.835 145.88 176.185 147.44 178.885 147.44C181.825 147.44 184.555 145.76 187.075 142.4C189.655 138.98 191.635 134.63 193.015 129.35C193.555 129.53 194.305 130.04 195.265 130.88C196.225 131.66 196.885 132.35 197.245 132.95C196.285 137.93 194.125 142.7 190.765 147.26C189.085 149.6 186.955 151.52 184.375 153.02C181.435 154.76 178.105 155.63 174.385 155.63ZM177.895 114.95C183.415 108.89 186.175 103.46 186.175 98.66C186.175 95.78 185.095 94.34 182.935 94.34C181.555 94.46 180.625 95.36 180.145 97.04C179.725 98.72 179.305 101.45 178.885 105.23C178.525 109.01 178.285 111.35 178.165 112.25L177.895 114.95ZM229.885 155.45C224.365 155.45 220.705 153.53 218.905 149.69C215.785 153.59 211.765 155.54 206.845 155.54C201.985 155.54 197.875 153.89 194.515 150.59C191.215 147.29 189.565 142.94 189.565 137.54C189.565 129.68 191.875 123.41 196.495 118.73C201.115 114.05 206.965 111.71 214.045 111.71C214.225 111.71 214.405 111.71 214.585 111.71C217.585 111.71 220.345 112.22 222.865 113.24C224.485 112.22 226.435 111.71 228.715 111.71C231.055 111.71 232.735 112.01 233.755 112.61C233.215 117.05 232.645 121.43 232.045 125.75C231.445 130.01 231.025 133.04 230.785 134.84C230.245 138.92 229.975 141.86 229.975 143.66C229.975 146.06 230.935 147.26 232.855 147.26C234.355 147.26 235.945 146.27 237.625 144.29C239.305 142.25 240.775 139.07 242.035 134.75C243.775 136.31 244.975 138.05 245.635 139.97C243.895 145.67 241.555 149.69 238.615 152.03C235.675 154.31 232.765 155.45 229.885 155.45ZM215.395 118.73C211.555 118.73 208.495 120.2 206.215 123.14C203.995 126.02 202.675 130.34 202.255 136.1C202.195 136.64 202.165 137.15 202.165 137.63C202.165 140.57 202.855 142.91 204.235 144.65C205.675 146.39 207.505 147.26 209.725 147.26C213.505 147.26 216.355 144.59 218.275 139.25L220.435 119.81C218.695 119.09 217.015 118.73 215.395 118.73ZM249.042 111.62C252.942 111.62 255.222 112.61 255.882 114.59C258.702 112.61 262.272 111.62 266.592 111.62C270.912 111.62 274.632 113.39 277.752 116.93C280.872 120.47 282.432 124.61 282.432 129.35C282.432 130.01 282.402 130.7 282.342 131.42C281.682 139.28 279.042 145.28 274.422 149.42C269.802 153.5 263.772 155.54 256.332 155.54C254.652 155.54 252.822 155.33 250.842 154.91L247.962 179.66H236.172C240.012 146.6 242.592 124.16 243.912 112.34C245.172 111.86 246.882 111.62 249.042 111.62ZM269.742 129.98C269.742 127.34 269.142 125 267.942 122.96C266.742 120.92 264.882 119.9 262.362 119.9C258.942 119.9 256.332 122.12 254.532 126.56C253.332 135.44 252.642 140.6 252.462 142.04C252.402 143.84 252.972 145.19 254.172 146.09C255.372 146.99 256.842 147.44 258.582 147.44C261.642 147.44 264.162 146.06 266.142 143.3C268.542 139.88 269.742 135.44 269.742 129.98Z" fill="white"/>
<g clip-path="url(#clip0_348_3)">
<path d="M136.332 96.2953C138.192 103.139 144.839 105.249 149.867 107.388C151.641 108.142 153.343 108.844 154.75 108.462C156.158 108.08 157.27 106.613 158.418 105.064C161.672 100.674 166.337 95.4902 164.478 88.6466C162.618 81.803 153.559 79.0532 149.014 87.3534C140.894 82.495 134.472 89.4517 136.332 96.2953Z" fill="#FF0000" stroke="white" stroke-width="0.66"/>
</g>
<defs>
<clipPath id="clip0_348_3">
<rect width="35" height="35" fill="white" transform="translate(130.023 84.2017) rotate(-15.2031)"/>
</clipPath>
</defs>
</svg>
