<svg width="430" height="276" viewBox="0 0 430 276" fill="none" xmlns="http://www.w3.org/2000/svg">
<rect width="430" height="276" fill="url(#paint0_linear_353_2)" fill-opacity="0.43"/>
<path d="M134.541 168L137.961 138.12C137.961 136.44 137.541 135.06 136.701 133.98C135.921 132.84 134.511 132.27 132.471 132.27C130.431 132.27 128.751 133.26 127.431 135.24C126.111 137.16 125.271 139.2 124.911 141.36C122.811 156.3 121.641 165.18 121.401 168H109.341L114.291 125.7C116.811 125.04 118.731 124.71 120.051 124.71C123.831 124.71 125.901 125.97 126.261 128.49C129.201 125.97 132.411 124.71 135.891 124.71C142.851 124.71 147.291 126.78 149.211 130.92C152.151 126.72 156.351 124.62 161.811 124.62C165.831 124.62 169.011 125.67 171.351 127.77C173.691 129.81 174.861 132.39 174.861 135.51C174.861 136.41 174.681 138 174.321 140.28C172.941 149.28 172.251 154.56 172.251 156.12C172.251 158.94 173.181 160.35 175.041 160.35C176.601 160.35 178.251 159.33 179.991 157.29C181.791 155.19 183.231 151.98 184.311 147.66C186.351 149.82 187.581 151.53 188.001 152.79C184.881 163.23 179.361 168.45 171.441 168.45C167.721 168.45 164.961 167.31 163.161 165.03C161.361 162.75 160.461 160.35 160.461 157.83L162.621 137.94C162.621 136.32 162.201 134.97 161.361 133.89C160.521 132.81 159.171 132.27 157.311 132.27C155.511 132.27 153.921 132.96 152.541 134.34C151.161 135.72 150.201 137.49 149.661 139.65C147.861 154.89 146.691 164.34 146.151 168H134.541ZM188.335 101.76C189.715 100.32 191.395 99.6 193.375 99.6C195.355 99.6 197.035 100.32 198.415 101.76C199.855 103.14 200.575 104.82 200.575 106.8C200.575 108.78 199.855 110.46 198.415 111.84C197.035 113.22 195.355 113.91 193.375 113.91C191.395 113.91 189.715 113.22 188.335 111.84C186.955 110.46 186.265 108.78 186.265 106.8C186.265 104.82 186.955 103.14 188.335 101.76ZM184.645 128.13C185.245 127.05 186.385 126.24 188.065 125.7C189.745 125.1 191.395 124.8 193.015 124.8C194.695 124.8 196.165 125.01 197.425 125.43C195.085 143.49 193.915 152.61 193.915 152.79C193.615 153.99 193.465 155.01 193.465 155.85C193.465 156.63 193.525 157.32 193.645 157.92C193.885 159.48 194.965 160.26 196.885 160.26C198.865 160.26 200.665 159 202.285 156.48C203.965 153.9 205.225 150.99 206.065 147.75C206.485 147.99 207.145 148.71 208.045 149.91C208.945 151.11 209.485 152.01 209.665 152.61C208.465 157.41 206.425 161.28 203.545 164.22C200.665 167.16 197.215 168.63 193.195 168.63C189.175 168.63 186.175 167.64 184.195 165.66C182.275 163.68 181.315 161.13 181.315 158.01C181.315 157.35 181.345 156.66 181.405 155.94L184.645 128.13ZM214.385 168.63C210.725 168.63 207.845 167.61 205.745 165.57C203.645 163.47 202.595 160.62 202.595 157.02C202.595 156.06 204.215 141.81 207.455 114.27C208.295 107.19 210.545 102.72 214.205 100.86C215.885 99.96 217.895 99.51 220.235 99.51C228.155 99.51 232.115 103.17 232.115 110.49C232.115 111.09 232.085 111.72 232.025 112.38C231.425 120.42 226.385 128.61 216.905 136.95C216.605 139.89 216.275 142.74 215.915 145.5C215.195 151.68 214.835 155.1 214.835 155.76C214.835 158.88 216.185 160.44 218.885 160.44C221.825 160.44 224.555 158.76 227.075 155.4C229.655 151.98 231.635 147.63 233.015 142.35C233.555 142.53 234.305 143.04 235.265 143.88C236.225 144.66 236.885 145.35 237.245 145.95C236.285 150.93 234.125 155.7 230.765 160.26C229.085 162.6 226.955 164.52 224.375 166.02C221.435 167.76 218.105 168.63 214.385 168.63ZM217.895 127.95C223.415 121.89 226.175 116.46 226.175 111.66C226.175 108.78 225.095 107.34 222.935 107.34C221.555 107.46 220.625 108.36 220.145 110.04C219.725 111.72 219.305 114.45 218.885 118.23C218.525 122.01 218.285 124.35 218.165 125.25L217.895 127.95ZM269.885 168.45C264.365 168.45 260.705 166.53 258.905 162.69C255.785 166.59 251.765 168.54 246.845 168.54C241.985 168.54 237.875 166.89 234.515 163.59C231.215 160.29 229.565 155.94 229.565 150.54C229.565 142.68 231.875 136.41 236.495 131.73C241.115 127.05 246.965 124.71 254.045 124.71C254.225 124.71 254.405 124.71 254.585 124.71C257.585 124.71 260.345 125.22 262.865 126.24C264.485 125.22 266.435 124.71 268.715 124.71C271.055 124.71 272.735 125.01 273.755 125.61C273.215 130.05 272.645 134.43 272.045 138.75C271.445 143.01 271.025 146.04 270.785 147.84C270.245 151.92 269.975 154.86 269.975 156.66C269.975 159.06 270.935 160.26 272.855 160.26C274.355 160.26 275.945 159.27 277.625 157.29C279.305 155.25 280.775 152.07 282.035 147.75C283.775 149.31 284.975 151.05 285.635 152.97C283.895 158.67 281.555 162.69 278.615 165.03C275.675 167.31 272.765 168.45 269.885 168.45ZM255.395 131.73C251.555 131.73 248.495 133.2 246.215 136.14C243.995 139.02 242.675 143.34 242.255 149.1C242.195 149.64 242.165 150.15 242.165 150.63C242.165 153.57 242.855 155.91 244.235 157.65C245.675 159.39 247.505 160.26 249.725 160.26C253.505 160.26 256.355 157.59 258.275 152.25L260.435 132.81C258.695 132.09 257.015 131.73 255.395 131.73ZM289.042 124.62C292.942 124.62 295.222 125.61 295.882 127.59C298.702 125.61 302.272 124.62 306.592 124.62C310.912 124.62 314.632 126.39 317.752 129.93C320.872 133.47 322.432 137.61 322.432 142.35C322.432 143.01 322.402 143.7 322.342 144.42C321.682 152.28 319.042 158.28 314.422 162.42C309.802 166.5 303.772 168.54 296.332 168.54C294.652 168.54 292.822 168.33 290.842 167.91L287.962 192.66H276.172C280.012 159.6 282.592 137.16 283.912 125.34C285.172 124.86 286.882 124.62 289.042 124.62ZM309.742 142.98C309.742 140.34 309.142 138 307.942 135.96C306.742 133.92 304.882 132.9 302.362 132.9C298.942 132.9 296.332 135.12 294.532 139.56C293.332 148.44 292.642 153.6 292.462 155.04C292.402 156.84 292.972 158.19 294.172 159.09C295.372 159.99 296.842 160.44 298.582 160.44C301.642 160.44 304.162 159.06 306.142 156.3C308.542 152.88 309.742 148.44 309.742 142.98Z" fill="white"/>
<g clip-path="url(#clip0_353_2)">
<path d="M176.332 109.295C178.192 116.139 184.839 118.249 189.867 120.388C191.641 121.142 193.343 121.844 194.75 121.462C196.158 121.08 197.27 119.613 198.418 118.064C201.672 113.674 206.337 108.49 204.478 101.647C202.618 94.803 193.559 92.0532 189.014 100.353C180.894 95.495 174.472 102.452 176.332 109.295Z" fill="#FF0000" stroke="white" stroke-width="0.66"/>
</g>
<defs>
<linearGradient id="paint0_linear_353_2" x1="0" y1="0" x2="430" y2="276" gradientUnits="userSpaceOnUse">
<stop/>
<stop offset="1" stop-color="white"/>
</linearGradient>
<clipPath id="clip0_353_2">
<rect width="35" height="35" fill="white" transform="translate(170.023 97.2017) rotate(-15.2031)"/>
</clipPath>
</defs>
</svg>
