<svg width="315" height="187" viewBox="0 0 315 187" fill="none" xmlns="http://www.w3.org/2000/svg">
<rect width="315" height="187" fill="black"/>
<path d="M77.2875 119L80.7075 89.12C80.7075 87.44 80.2875 86.06 79.4475 84.98C78.6675 83.84 77.2575 83.27 75.2175 83.27C73.1775 83.27 71.4975 84.26 70.1775 86.24C68.8575 88.16 68.0175 90.2 67.6575 92.36C65.5575 107.3 64.3875 116.18 64.1475 119H52.0875L57.0375 76.7C59.5575 76.04 61.4775 75.71 62.7975 75.71C66.5775 75.71 68.6475 76.97 69.0075 79.49C71.9475 76.97 75.1575 75.71 78.6375 75.71C85.5975 75.71 90.0375 77.78 91.9575 81.92C94.8975 77.72 99.0975 75.62 104.558 75.62C108.578 75.62 111.758 76.67 114.098 78.77C116.438 80.81 117.608 83.39 117.608 86.51C117.608 87.41 117.428 89 117.068 91.28C115.688 100.28 114.998 105.56 114.998 107.12C114.998 109.94 115.928 111.35 117.788 111.35C119.348 111.35 120.998 110.33 122.738 108.29C124.538 106.19 125.978 102.98 127.058 98.66C129.098 100.82 130.328 102.53 130.748 103.79C127.628 114.23 122.108 119.45 114.188 119.45C110.468 119.45 107.708 118.31 105.908 116.03C104.108 113.75 103.208 111.35 103.208 108.83L105.368 88.94C105.368 87.32 104.948 85.97 104.108 84.89C103.268 83.81 101.918 83.27 100.058 83.27C98.2575 83.27 96.6675 83.96 95.2875 85.34C93.9075 86.72 92.9475 88.49 92.4075 90.65C90.6075 105.89 89.4375 115.34 88.8975 119H77.2875ZM131.081 52.76C132.461 51.32 134.141 50.6 136.121 50.6C138.101 50.6 139.781 51.32 141.161 52.76C142.601 54.14 143.321 55.82 143.321 57.8C143.321 59.78 142.601 61.46 141.161 62.84C139.781 64.22 138.101 64.91 136.121 64.91C134.141 64.91 132.461 64.22 131.081 62.84C129.701 61.46 129.011 59.78 129.011 57.8C129.011 55.82 129.701 54.14 131.081 52.76ZM127.391 79.13C127.991 78.05 129.131 77.24 130.811 76.7C132.491 76.1 134.141 75.8 135.761 75.8C137.441 75.8 138.911 76.01 140.171 76.43C137.831 94.49 136.661 103.61 136.661 103.79C136.361 104.99 136.211 106.01 136.211 106.85C136.211 107.63 136.271 108.32 136.391 108.92C136.631 110.48 137.711 111.26 139.631 111.26C141.611 111.26 143.411 110 145.031 107.48C146.711 104.9 147.971 101.99 148.811 98.75C149.231 98.99 149.891 99.71 150.791 100.91C151.691 102.11 152.231 103.01 152.411 103.61C151.211 108.41 149.171 112.28 146.291 115.22C143.411 118.16 139.961 119.63 135.941 119.63C131.921 119.63 128.921 118.64 126.941 116.66C125.021 114.68 124.061 112.13 124.061 109.01C124.061 108.35 124.091 107.66 124.151 106.94L127.391 79.13ZM157.132 119.63C153.472 119.63 150.592 118.61 148.492 116.57C146.392 114.47 145.342 111.62 145.342 108.02C145.342 107.06 146.962 92.81 150.202 65.27C151.042 58.19 153.292 53.72 156.952 51.86C158.632 50.96 160.642 50.51 162.982 50.51C170.902 50.51 174.862 54.17 174.862 61.49C174.862 62.09 174.832 62.72 174.772 63.38C174.172 71.42 169.132 79.61 159.652 87.95C159.352 90.89 159.022 93.74 158.662 96.5C157.942 102.68 157.582 106.1 157.582 106.76C157.582 109.88 158.932 111.44 161.632 111.44C164.572 111.44 167.302 109.76 169.822 106.4C172.402 102.98 174.382 98.63 175.762 93.35C176.302 93.53 177.052 94.04 178.012 94.88C178.972 95.66 179.632 96.35 179.992 96.95C179.032 101.93 176.872 106.7 173.512 111.26C171.832 113.6 169.702 115.52 167.122 117.02C164.182 118.76 160.852 119.63 157.132 119.63ZM160.642 78.95C166.162 72.89 168.922 67.46 168.922 62.66C168.922 59.78 167.842 58.34 165.682 58.34C164.302 58.46 163.372 59.36 162.892 61.04C162.472 62.72 162.052 65.45 161.632 69.23C161.272 73.01 161.032 75.35 160.912 76.25L160.642 78.95ZM212.631 119.45C207.111 119.45 203.451 117.53 201.651 113.69C198.531 117.59 194.511 119.54 189.591 119.54C184.731 119.54 180.621 117.89 177.261 114.59C173.961 111.29 172.311 106.94 172.311 101.54C172.311 93.68 174.621 87.41 179.241 82.73C183.861 78.05 189.711 75.71 196.791 75.71C196.971 75.71 197.151 75.71 197.331 75.71C200.331 75.71 203.091 76.22 205.611 77.24C207.231 76.22 209.181 75.71 211.461 75.71C213.801 75.71 215.481 76.01 216.501 76.61C215.961 81.05 215.391 85.43 214.791 89.75C214.191 94.01 213.771 97.04 213.531 98.84C212.991 102.92 212.721 105.86 212.721 107.66C212.721 110.06 213.681 111.26 215.601 111.26C217.101 111.26 218.691 110.27 220.371 108.29C222.051 106.25 223.521 103.07 224.781 98.75C226.521 100.31 227.721 102.05 228.381 103.97C226.641 109.67 224.301 113.69 221.361 116.03C218.421 118.31 215.511 119.45 212.631 119.45ZM198.141 82.73C194.301 82.73 191.241 84.2 188.961 87.14C186.741 90.02 185.421 94.34 185.001 100.1C184.941 100.64 184.911 101.15 184.911 101.63C184.911 104.57 185.601 106.91 186.981 108.65C188.421 110.39 190.251 111.26 192.471 111.26C196.251 111.26 199.101 108.59 201.021 103.25L203.181 83.81C201.441 83.09 199.761 82.73 198.141 82.73ZM231.788 75.62C235.688 75.62 237.968 76.61 238.628 78.59C241.448 76.61 245.018 75.62 249.338 75.62C253.658 75.62 257.378 77.39 260.498 80.93C263.618 84.47 265.178 88.61 265.178 93.35C265.178 94.01 265.148 94.7 265.088 95.42C264.428 103.28 261.788 109.28 257.168 113.42C252.548 117.5 246.518 119.54 239.078 119.54C237.398 119.54 235.568 119.33 233.588 118.91L230.708 143.66H218.918C222.758 110.6 225.338 88.16 226.658 76.34C227.918 75.86 229.628 75.62 231.788 75.62ZM252.488 93.98C252.488 91.34 251.888 89 250.688 86.96C249.488 84.92 247.628 83.9 245.108 83.9C241.688 83.9 239.078 86.12 237.278 90.56C236.078 99.44 235.388 104.6 235.208 106.04C235.148 107.84 235.718 109.19 236.918 110.09C238.118 110.99 239.588 111.44 241.328 111.44C244.388 111.44 246.908 110.06 248.888 107.3C251.288 103.88 252.488 99.44 252.488 93.98Z" fill="white"/>
<g clip-path="url(#clip0_369_2)">
<path d="M113.137 62.1985C115.282 69.4332 122.951 71.6635 128.751 73.9247C130.798 74.7227 132.761 75.4648 134.385 75.0605C136.008 74.6562 137.292 73.1055 138.616 71.468C142.37 66.8276 147.752 61.3473 145.607 54.1126C143.461 46.8778 133.01 43.9707 127.767 52.7454C118.399 47.6092 110.991 54.9637 113.137 62.1985Z" fill="#FF0000" stroke="black" stroke-width="0.66"/>
</g>
<defs>
<clipPath id="clip0_369_2">
<rect width="40.1541" height="37.2426" fill="white" transform="matrix(0.970365 -0.241646 0.284312 0.958732 105.859 49.4133)"/>
</clipPath>
</defs>
</svg>
