<svg width="218" height="124" viewBox="0 0 218 124" fill="none" xmlns="http://www.w3.org/2000/svg">
<path d="M28.5414 92L31.9614 62.12C31.9614 60.44 31.5414 59.06 30.7014 57.98C29.9214 56.84 28.5114 56.27 26.4714 56.27C24.4314 56.27 22.7514 57.26 21.4314 59.24C20.1114 61.16 19.2714 63.2 18.9114 65.36C16.8114 80.3 15.6414 89.18 15.4014 92H3.34141L8.29141 49.7C10.8114 49.04 12.7314 48.71 14.0514 48.71C17.8314 48.71 19.9014 49.97 20.2614 52.49C23.2014 49.97 26.4114 48.71 29.8914 48.71C36.8514 48.71 41.2914 50.78 43.2114 54.92C46.1514 50.72 50.3514 48.62 55.8114 48.62C59.8314 48.62 63.0114 49.67 65.3514 51.77C67.6914 53.81 68.8614 56.39 68.8614 59.51C68.8614 60.41 68.6814 62 68.3214 64.28C66.9414 73.28 66.2514 78.56 66.2514 80.12C66.2514 82.94 67.1814 84.35 69.0414 84.35C70.6014 84.35 72.2514 83.33 73.9914 81.29C75.7914 79.19 77.2314 75.98 78.3114 71.66C80.3514 73.82 81.5814 75.53 82.0014 76.79C78.8814 87.23 73.3614 92.45 65.4414 92.45C61.7214 92.45 58.9614 91.31 57.1614 89.03C55.3614 86.75 54.4614 84.35 54.4614 81.83L56.6214 61.94C56.6214 60.32 56.2014 58.97 55.3614 57.89C54.5214 56.81 53.1714 56.27 51.3114 56.27C49.5114 56.27 47.9214 56.96 46.5414 58.34C45.1614 59.72 44.2014 61.49 43.6614 63.65C41.8614 78.89 40.6914 88.34 40.1514 92H28.5414ZM82.3354 25.76C83.7154 24.32 85.3954 23.6 87.3754 23.6C89.3554 23.6 91.0354 24.32 92.4154 25.76C93.8554 27.14 94.5754 28.82 94.5754 30.8C94.5754 32.78 93.8554 34.46 92.4154 35.84C91.0354 37.22 89.3554 37.91 87.3754 37.91C85.3954 37.91 83.7154 37.22 82.3354 35.84C80.9554 34.46 80.2654 32.78 80.2654 30.8C80.2654 28.82 80.9554 27.14 82.3354 25.76ZM78.6454 52.13C79.2454 51.05 80.3854 50.24 82.0654 49.7C83.7454 49.1 85.3954 48.8 87.0154 48.8C88.6954 48.8 90.1654 49.01 91.4254 49.43C89.0854 67.49 87.9154 76.61 87.9154 76.79C87.6154 77.99 87.4654 79.01 87.4654 79.85C87.4654 80.63 87.5254 81.32 87.6454 81.92C87.8854 83.48 88.9654 84.26 90.8854 84.26C92.8654 84.26 94.6654 83 96.2854 80.48C97.9654 77.9 99.2254 74.99 100.065 71.75C100.485 71.99 101.145 72.71 102.045 73.91C102.945 75.11 103.485 76.01 103.665 76.61C102.465 81.41 100.425 85.28 97.5454 88.22C94.6654 91.16 91.2154 92.63 87.1954 92.63C83.1754 92.63 80.1754 91.64 78.1954 89.66C76.2754 87.68 75.3154 85.13 75.3154 82.01C75.3154 81.35 75.3454 80.66 75.4054 79.94L78.6454 52.13ZM108.385 92.63C104.725 92.63 101.845 91.61 99.7455 89.57C97.6455 87.47 96.5955 84.62 96.5955 81.02C96.5955 80.06 98.2155 65.81 101.455 38.27C102.295 31.19 104.545 26.72 108.205 24.86C109.885 23.96 111.895 23.51 114.235 23.51C122.155 23.51 126.115 27.17 126.115 34.49C126.115 35.09 126.085 35.72 126.025 36.38C125.425 44.42 120.385 52.61 110.905 60.95C110.605 63.89 110.275 66.74 109.915 69.5C109.195 75.68 108.835 79.1 108.835 79.76C108.835 82.88 110.185 84.44 112.885 84.44C115.825 84.44 118.555 82.76 121.075 79.4C123.655 75.98 125.635 71.63 127.015 66.35C127.555 66.53 128.305 67.04 129.265 67.88C130.225 68.66 130.885 69.35 131.245 69.95C130.285 74.93 128.125 79.7 124.765 84.26C123.085 86.6 120.955 88.52 118.375 90.02C115.435 91.76 112.105 92.63 108.385 92.63ZM111.895 51.95C117.415 45.89 120.175 40.46 120.175 35.66C120.175 32.78 119.095 31.34 116.935 31.34C115.555 31.46 114.625 32.36 114.145 34.04C113.725 35.72 113.305 38.45 112.885 42.23C112.525 46.01 112.285 48.35 112.165 49.25L111.895 51.95ZM163.885 92.45C158.365 92.45 154.705 90.53 152.905 86.69C149.785 90.59 145.765 92.54 140.845 92.54C135.985 92.54 131.875 90.89 128.515 87.59C125.215 84.29 123.565 79.94 123.565 74.54C123.565 66.68 125.875 60.41 130.495 55.73C135.115 51.05 140.965 48.71 148.045 48.71C148.225 48.71 148.405 48.71 148.585 48.71C151.585 48.71 154.345 49.22 156.865 50.24C158.485 49.22 160.435 48.71 162.715 48.71C165.055 48.71 166.735 49.01 167.755 49.61C167.215 54.05 166.645 58.43 166.045 62.75C165.445 67.01 165.025 70.04 164.785 71.84C164.245 75.92 163.975 78.86 163.975 80.66C163.975 83.06 164.935 84.26 166.855 84.26C168.355 84.26 169.945 83.27 171.625 81.29C173.305 79.25 174.775 76.07 176.035 71.75C177.775 73.31 178.975 75.05 179.635 76.97C177.895 82.67 175.555 86.69 172.615 89.03C169.675 91.31 166.765 92.45 163.885 92.45ZM149.395 55.73C145.555 55.73 142.495 57.2 140.215 60.14C137.995 63.02 136.675 67.34 136.255 73.1C136.195 73.64 136.165 74.15 136.165 74.63C136.165 77.57 136.855 79.91 138.235 81.65C139.675 83.39 141.505 84.26 143.725 84.26C147.505 84.26 150.355 81.59 152.275 76.25L154.435 56.81C152.695 56.09 151.015 55.73 149.395 55.73ZM183.042 48.62C186.942 48.62 189.222 49.61 189.882 51.59C192.702 49.61 196.272 48.62 200.592 48.62C204.912 48.62 208.632 50.39 211.752 53.93C214.872 57.47 216.432 61.61 216.432 66.35C216.432 67.01 216.402 67.7 216.342 68.42C215.682 76.28 213.042 82.28 208.422 86.42C203.802 90.5 197.772 92.54 190.332 92.54C188.652 92.54 186.822 92.33 184.842 91.91L181.962 116.66H170.172C174.012 83.6 176.592 61.16 177.912 49.34C179.172 48.86 180.882 48.62 183.042 48.62ZM203.742 66.98C203.742 64.34 203.142 62 201.942 59.96C200.742 57.92 198.882 56.9 196.362 56.9C192.942 56.9 190.332 59.12 188.532 63.56C187.332 72.44 186.642 77.6 186.462 79.04C186.402 80.84 186.972 82.19 188.172 83.09C189.372 83.99 190.842 84.44 192.582 84.44C195.642 84.44 198.162 83.06 200.142 80.3C202.542 76.88 203.742 72.44 203.742 66.98Z" fill="white"/>
<g clip-path="url(#clip0_345_3)">
<path d="M70.3318 33.2953C72.1916 40.1389 78.8391 42.2486 83.8669 44.3875C85.6411 45.1423 87.343 45.8444 88.7503 45.4619C90.1576 45.0795 91.2702 43.6126 92.4184 42.0637C95.672 37.6742 100.337 32.4902 98.4777 25.6466C96.618 18.803 87.5587 16.0532 83.0141 24.3534C74.8935 19.495 68.4721 26.4517 70.3318 33.2953Z" fill="#FF0000" stroke="white" stroke-width="0.66"/>
</g>
<defs>
<clipPath id="clip0_345_3">
<rect width="35" height="35" fill="white" transform="translate(64.0234 21.2017) rotate(-15.2031)"/>
</clipPath>
</defs>
</svg>
